<svg width="20" height="21" viewBox="0 0 20 21" fill="none" xmlns="http://www.w3.org/2000/svg">
<g id="Form">
<path id="Vector" d="M15.8202 3.00986H2.50016C2.08682 3.00986 1.70016 3.10986 1.34016 3.30986C0.980156 3.50986 0.69349 3.7832 0.480156 4.12986C0.266823 4.47653 0.160156 4.85653 0.160156 5.26986V15.2699C0.160156 15.6832 0.26349 16.0699 0.470156 16.4299C0.676823 16.7899 0.956823 17.0765 1.31016 17.2899C1.66349 17.5032 2.06016 17.6099 2.50016 17.6099H15.8202C16.2335 17.6099 16.6202 17.5065 16.9802 17.2999C17.3402 17.0932 17.6268 16.8132 17.8402 16.4599C18.0535 16.1065 18.1602 15.7099 18.1602 15.2699V5.26986C18.1602 4.85653 18.0535 4.47653 17.8402 4.12986C17.6268 3.7832 17.3402 3.50986 16.9802 3.30986C16.6202 3.10986 16.2335 3.00986 15.8202 3.00986ZM2.50016 4.26986H15.8202C16.1135 4.26986 16.3535 4.36986 16.5402 4.56986C16.7268 4.76986 16.8202 5.0032 16.8202 5.26986V5.76986L9.66016 10.3499C9.48682 10.4299 9.30682 10.4699 9.12016 10.4699C8.93349 10.4699 8.75349 10.4299 8.58016 10.3499L1.50016 5.76986V5.26986C1.50016 4.97653 1.59349 4.73653 1.78016 4.54986C1.96682 4.3632 2.20682 4.26986 2.50016 4.26986ZM15.8202 16.3499H2.50016C2.22016 16.3499 1.98349 16.2465 1.79016 16.0399C1.59682 15.8332 1.50016 15.6032 1.50016 15.3499V7.26986L8.00016 11.4299C8.28016 11.6565 8.66682 11.7699 9.16016 11.7699C9.65349 11.7699 10.0402 11.6565 10.3202 11.4299L16.8202 7.26986V15.2699C16.8202 15.5632 16.7268 15.8165 16.5402 16.0299C16.3535 16.2432 16.1135 16.3499 15.8202 16.3499Z" fill="#9CA3AF"/>
</g>
</svg>
