<svg xmlns="http://www.w3.org/2000/svg" width="13" height="13" viewBox="0 0 13 13" fill="none">
<g clip-path="url(#clip0_6314_7700)">
<path d="M4.3616 6.13798L1.3616 3.13798C1.2816 3.06598 1.1896 3.02998 1.0856 3.02998C0.981598 3.02998 0.889598 3.06598 0.809598 3.13798C0.729598 3.20998 0.691598 3.29998 0.695598 3.40798C0.699598 3.51598 0.737598 3.60998 0.809598 3.68998L3.5576 6.43798L0.809598 9.18598C0.737598 9.26598 0.701598 9.35998 0.701598 9.46798C0.701598 9.57598 0.737598 9.66598 0.809598 9.73798C0.833598 9.76198 0.869598 9.78398 0.917598 9.80398C0.965598 9.82398 1.0136 9.83398 1.0616 9.83398C1.1096 9.83398 1.1576 9.82398 1.2056 9.80398C1.2536 9.78398 1.2896 9.76198 1.3136 9.73798L4.3136 6.73798C4.4976 6.49798 4.5136 6.29798 4.3616 6.13798Z" fill="#9CA3AF"/>
</g>
<defs>
<clipPath id="clip0_6314_7700">
<rect width="11.69" height="12" fill="white" transform="matrix(1 0 0 -1 0.691406 12.39)"/>
</clipPath>
</defs>
</svg>