<svg width="28" height="29" viewBox="0 0 28 29" fill="none" xmlns="http://www.w3.org/2000/svg">
<g id="List &#226;&#134;&#146; Item">
<path id="Vector" d="M22.3434 17.2654C21.13 17.1347 20.122 16.864 19.3194 16.4534C18.7407 16.2294 18.148 16.1874 17.5414 16.3274C16.9347 16.4674 16.398 16.7427 15.9314 17.1534L14.8674 18.3294C12.5154 16.7987 10.574 14.8574 9.04338 12.5054L10.1074 11.4414C10.5554 10.9934 10.84 10.466 10.9614 9.85938C11.0827 9.25272 11.0314 8.65072 10.8074 8.05338C10.4714 7.17605 10.238 6.16805 10.1074 5.02938C9.97672 4.26405 9.59872 3.62472 8.97338 3.11138C8.34805 2.59805 7.63405 2.34138 6.83138 2.34138H3.10738C2.52872 2.37872 2.01072 2.56538 1.55338 2.90138C1.09605 3.23738 0.741382 3.66672 0.489382 4.18938C0.237382 4.71205 0.130049 5.26272 0.167382 5.84138C0.354049 7.70805 0.764715 9.53272 1.39938 11.3154C2.03405 13.0981 2.87405 14.7734 3.91938 16.3414C5.78605 19.2907 8.19405 21.6987 11.1434 23.5654C12.73 24.5547 14.41 25.3667 16.1834 26.0014C17.9567 26.636 19.7767 27.0747 21.6434 27.3174H22.0074C22.3994 27.3174 22.7914 27.2334 23.1834 27.0654C23.5754 26.8974 23.9207 26.6687 24.2194 26.3794C24.518 26.09 24.7467 25.7494 24.9054 25.3574C25.064 24.9654 25.1434 24.564 25.1434 24.1534V20.6534C25.1434 19.7947 24.882 19.048 24.3594 18.4134C23.8367 17.7787 23.1647 17.396 22.3434 17.2654ZM23.2674 20.5414V24.0414C23.2674 24.4334 23.118 24.788 22.8194 25.1054C22.4834 25.404 22.1287 25.5534 21.7554 25.5534H21.6434C19.926 25.3854 18.2554 25.012 16.6314 24.4334C14.9514 23.836 13.3927 23.0427 11.9554 22.0534C10.63 21.1947 9.39338 20.1914 8.24538 19.0434C7.09738 17.8954 6.08472 16.6494 5.20738 15.3054C4.27405 13.8494 3.51338 12.3 2.92538 10.6574C2.33738 9.01472 1.93138 7.33472 1.70738 5.61738C1.76338 5.18805 1.93138 4.82872 2.21138 4.53938C2.49138 4.25005 2.82738 4.10538 3.21938 4.10538H6.83138C7.18605 4.10538 7.50805 4.23138 7.79738 4.48338C8.08672 4.73538 8.23138 5.02938 8.23138 5.36538C8.26872 5.85072 8.36205 6.39205 8.51138 6.98938C8.60472 7.36272 8.75405 7.90405 8.95938 8.61338L9.04338 8.86538C9.15538 9.16405 9.18338 9.44872 9.12738 9.71938C9.07138 9.99005 8.93138 10.2187 8.70738 10.4054L7.41938 11.8054C7.25138 11.9174 7.15338 12.0714 7.12538 12.2674C7.09738 12.4634 7.11138 12.6547 7.16738 12.8414C8.04472 14.3534 9.11338 15.7394 10.3734 16.9994C11.6334 18.2594 13.0194 19.328 14.5314 20.2054C14.6994 20.3174 14.886 20.3547 15.0914 20.3174C15.2967 20.28 15.4554 20.196 15.5674 20.0654L17.1074 18.5534C17.294 18.3667 17.5367 18.236 17.8354 18.1614C18.134 18.0867 18.3954 18.1054 18.6194 18.2174C19.702 18.6467 20.8687 18.9174 22.1194 19.0294C22.474 19.0854 22.7727 19.2674 23.0154 19.5754C23.258 19.8834 23.342 20.2054 23.2674 20.5414ZM14.8674 3.96538C16.3794 4.11472 17.7514 4.58138 18.9834 5.36538C20.2154 6.14938 21.2234 7.15738 22.0074 8.38938C22.7914 9.62138 23.258 10.9934 23.4074 12.5054C23.4074 12.7294 23.496 12.9207 23.6734 13.0794C23.8507 13.238 24.0327 13.3174 24.2194 13.3174H24.3314C24.5554 13.3174 24.7467 13.2194 24.9054 13.0234C25.064 12.8274 25.1434 12.6081 25.1434 12.3654C24.9567 10.6107 24.3874 8.99605 23.4354 7.52138C22.5207 6.08405 21.3307 4.90805 19.8654 3.99338C18.4 3.07872 16.7807 2.52805 15.0074 2.34138C14.7647 2.34138 14.5454 2.42072 14.3494 2.57938C14.1534 2.73805 14.0554 2.92005 14.0554 3.12538C14.0554 3.33072 14.1347 3.52205 14.2934 3.69938C14.452 3.87672 14.6434 3.96538 14.8674 3.96538ZM14.0554 7.71738C13.9994 7.94138 14.046 8.15605 14.1954 8.36138C14.3447 8.56672 14.5314 8.69738 14.7554 8.75338C15.726 8.94005 16.5707 9.39738 17.2894 10.1254C18.008 10.8534 18.4887 11.7214 18.7314 12.7294C18.7874 12.9534 18.89 13.126 19.0394 13.2474C19.1887 13.3687 19.3567 13.4294 19.5434 13.4294H19.6554C19.898 13.3734 20.0894 13.2427 20.2294 13.0374C20.3694 12.8321 20.4114 12.6081 20.3554 12.3654C20.1314 11.0401 19.5387 9.89205 18.5774 8.92138C17.616 7.95072 16.4634 7.31605 15.1194 7.01738C14.8767 6.96138 14.6527 6.99405 14.4474 7.11538C14.242 7.23672 14.1114 7.43738 14.0554 7.71738Z" fill="#111827"/>
</g>
</svg>
