<svg xmlns="http://www.w3.org/2000/svg" width="37" height="37" viewBox="0 0 37 37" fill="none">
<rect x="0.5" y="0.669922" width="36" height="36" rx="6" fill="white"/>
<g clip-path="url(#clip0_6481_3509)">
<path d="M24.6152 15.6098C24.6252 15.6998 24.6302 15.8348 24.6302 16.0148C24.6302 17.0548 24.4402 18.0798 24.0602 19.0898C23.6702 20.1498 23.1102 21.0898 22.3802 21.9098C21.6002 22.7898 20.6852 23.4748 19.6352 23.9648C18.4952 24.4948 17.2452 24.7598 15.8852 24.7598C15.0252 24.7598 14.1952 24.6423 13.3952 24.4073C12.5952 24.1723 11.8502 23.8298 11.1602 23.3798C11.4202 23.4098 11.6702 23.4248 11.9102 23.4248C12.6102 23.4248 13.2877 23.3098 13.9427 23.0798C14.5977 22.8498 15.1902 22.5248 15.7202 22.1048C15.0502 22.0948 14.4527 21.8898 13.9277 21.4898C13.4027 21.0898 13.0402 20.5848 12.8402 19.9748C13.0402 20.0048 13.2352 20.0198 13.4252 20.0198C13.7252 20.0198 13.9952 19.9848 14.2352 19.9148C13.7652 19.8248 13.3452 19.6348 12.9752 19.3448C12.6052 19.0548 12.3127 18.6973 12.0977 18.2723C11.8827 17.8473 11.7752 17.3898 11.7752 16.8998V16.8548C12.1852 17.0948 12.6452 17.2248 13.1552 17.2448C12.7352 16.9748 12.4027 16.6123 12.1577 16.1573C11.9127 15.7023 11.7902 15.2148 11.7902 14.6948C11.7902 14.1348 11.9302 13.6148 12.2102 13.1348C12.9802 14.0848 13.9052 14.8398 14.9852 15.3998C16.0952 15.9698 17.2802 16.2898 18.5402 16.3598C18.4902 16.1098 18.4652 15.8748 18.4652 15.6548C18.4652 15.0948 18.6027 14.5798 18.8777 14.1098C19.1527 13.6398 19.5252 13.2673 19.9952 12.9923C20.4652 12.7173 20.9802 12.5798 21.5402 12.5798C21.9802 12.5798 22.3952 12.6673 22.7852 12.8423C23.1752 13.0173 23.5102 13.2548 23.7902 13.5548C24.5002 13.4148 25.1502 13.1648 25.7402 12.8048C25.6302 13.1648 25.4577 13.4898 25.2227 13.7798C24.9877 14.0698 24.7102 14.3098 24.3902 14.4998C24.9602 14.4398 25.5502 14.2798 26.1602 14.0198C25.7402 14.6398 25.2252 15.1698 24.6152 15.6098Z" fill="#1DA1F2"/>
</g>
<defs>
<clipPath id="clip0_6481_3509">
<rect width="15" height="15" fill="white" transform="matrix(1 0 0 -1 11 26.1699)"/>
</clipPath>
</defs>
</svg>