<svg width="28" height="29" viewBox="0 0 28 29" fill="none" xmlns="http://www.w3.org/2000/svg">
<g id="List &#226;&#134;&#146; Item">
<path id="Vector" d="M22.0842 4.16547H3.43616C2.85749 4.16547 2.31616 4.30547 1.81216 4.58547C1.30816 4.86547 0.906823 5.24813 0.608156 5.73347C0.30949 6.2188 0.160156 6.7508 0.160156 7.32947V21.3295C0.160156 21.9081 0.304823 22.4495 0.594156 22.9535C0.88349 23.4575 1.27549 23.8588 1.77016 24.1575C2.26482 24.4561 2.82016 24.6055 3.43616 24.6055H22.0842C22.6628 24.6055 23.2042 24.4608 23.7082 24.1715C24.2122 23.8821 24.6135 23.4901 24.9122 22.9955C25.2108 22.5008 25.3602 21.9455 25.3602 21.3295V7.32947C25.3602 6.7508 25.2108 6.2188 24.9122 5.73347C24.6135 5.24813 24.2122 4.86547 23.7082 4.58547C23.2042 4.30547 22.6628 4.16547 22.0842 4.16547ZM3.43616 5.92947H22.0842C22.4948 5.92947 22.8308 6.06947 23.0922 6.34947C23.3535 6.62947 23.4842 6.95613 23.4842 7.32947V8.02947L13.4602 14.4415C13.2175 14.5535 12.9655 14.6095 12.7042 14.6095C12.4428 14.6095 12.1908 14.5535 11.9482 14.4415L2.03616 8.02947V7.32947C2.03616 6.9188 2.16682 6.5828 2.42816 6.32147C2.68949 6.06013 3.02549 5.92947 3.43616 5.92947ZM22.0842 22.8415H3.43616C3.04416 22.8415 2.71282 22.6968 2.44216 22.4075C2.17149 22.1181 2.03616 21.7961 2.03616 21.4415V10.1295L11.1362 15.9535C11.5282 16.2708 12.0695 16.4295 12.7602 16.4295C13.4508 16.4295 13.9922 16.2708 14.3842 15.9535L23.4842 10.1295V21.3295C23.4842 21.7401 23.3535 22.0948 23.0922 22.3935C22.8308 22.6921 22.4948 22.8415 22.0842 22.8415Z" fill="#111827"/>
</g>
</svg>
