<svg xmlns="http://www.w3.org/2000/svg" width="32" height="33" viewBox="0 0 32 33" fill="none">
<rect y="0.0900879" width="32" height="32" rx="16" fill="white"/>
<g clip-path="url(#clip0_6314_3801)">
<path d="M17.9901 7.84009C17.2274 7.84009 16.4977 8.00509 15.8011 8.33509C15.1044 8.66509 14.5214 9.10875 14.0521 9.66609C13.5974 9.07942 13.0254 8.62842 12.3361 8.31309C11.6467 7.99775 10.9061 7.84009 10.1141 7.84009C9.2194 7.84009 8.3834 8.06009 7.60606 8.50009C6.85806 8.92542 6.26406 9.50475 5.82406 10.2381C5.38406 10.9714 5.16406 11.7634 5.16406 12.6141C5.16406 14.2128 5.59673 15.7894 6.46206 17.3441C7.1514 18.5908 8.11206 19.8008 9.34406 20.9741C10.2241 21.8248 11.2067 22.6094 12.2921 23.3281C12.9667 23.7974 13.4654 24.1054 13.7881 24.2521C13.8467 24.3108 13.9347 24.3401 14.0521 24.3401C14.1694 24.3401 14.2941 24.3108 14.4261 24.2521C14.7781 24.0761 15.2767 23.7681 15.9221 23.3281C16.9927 22.6094 17.9754 21.8248 18.8701 20.9741C20.0874 19.8008 21.0407 18.5908 21.7301 17.3441C22.5954 15.7894 23.0281 14.2128 23.0281 12.6141C23.0281 11.7634 22.8007 10.9714 22.3461 10.2381C21.8914 9.50475 21.2754 8.92175 20.4981 8.48909C19.7207 8.05642 18.8847 7.84009 17.9901 7.84009ZM14.0521 22.8661C13.1134 22.2941 12.2481 21.6854 11.4561 21.0401C10.0627 19.9108 8.96273 18.7448 8.15606 17.5421C7.07073 15.9434 6.52806 14.3301 6.52806 12.7021C6.52806 12.0714 6.69306 11.4884 7.02306 10.9531C7.35306 10.4178 7.79306 9.99242 8.34306 9.67709C8.89306 9.36175 9.4834 9.20409 10.1141 9.20409C10.8474 9.20409 11.5111 9.39475 12.1051 9.77609C12.6991 10.1574 13.1354 10.6708 13.4141 11.3161C13.4727 11.4628 13.5864 11.5654 13.7551 11.6241C13.9237 11.6828 14.0997 11.6828 14.2831 11.6241C14.4664 11.5654 14.6021 11.4628 14.6901 11.3161C14.9687 10.6708 15.4087 10.1574 16.0101 9.77609C16.6114 9.39475 17.2714 9.20409 17.9901 9.20409C18.6501 9.20409 19.2551 9.36175 19.8051 9.67709C20.3551 9.99242 20.7877 10.4178 21.1031 10.9531C21.4184 11.4884 21.5761 12.0714 21.5761 12.7021C21.5761 14.3008 21.0334 15.8994 19.9481 17.4981C19.1267 18.7008 18.0267 19.8741 16.6481 21.0181C15.8267 21.6928 14.9614 22.3088 14.0521 22.8661Z" fill="#030712"/>
</g>
<defs>
<clipPath id="clip0_6314_3801">
<rect width="21.69" height="22" fill="white" transform="matrix(1 0 0 -1 5.16016 27.0901)"/>
</clipPath>
</defs>
</svg>