<svg xmlns="http://www.w3.org/2000/svg" width="23" height="17" viewBox="0 0 23 17" fill="none">
<g clip-path="url(#clip0_6314_3825)">
<path d="M13.8095 8.00641H9.6655V3.79841C9.6655 3.65974 9.6175 3.53708 9.5215 3.43041C9.4255 3.32374 9.2975 3.27041 9.1375 3.27041C8.9775 3.27041 8.8495 3.32374 8.7535 3.43041C8.6575 3.53708 8.6095 3.65974 8.6095 3.79841V7.94241H4.4655C4.32683 7.94241 4.20417 7.99041 4.0975 8.08641C3.99083 8.18241 3.9375 8.31308 3.9375 8.47841C3.9375 8.64374 3.9855 8.77174 4.0815 8.86241C4.1775 8.95308 4.3055 8.99841 4.4655 8.99841H8.6095V13.1424C8.6095 13.2811 8.6575 13.4037 8.7535 13.5104C8.8495 13.6171 8.98017 13.6704 9.1455 13.6704C9.31083 13.6704 9.43883 13.6224 9.5295 13.5264C9.62017 13.4304 9.6655 13.3024 9.6655 13.1424V8.99841H13.8095C13.9482 8.99841 14.0708 8.95041 14.1775 8.85441C14.2842 8.75841 14.3375 8.63041 14.3375 8.47041C14.3375 8.31041 14.2868 8.19308 14.1855 8.11841C14.0842 8.04374 13.9588 8.00641 13.8095 8.00641Z" fill="#634C9F"/>
</g>
<defs>
<clipPath id="clip0_6314_3825">
<rect width="16" height="16" fill="white" transform="matrix(1 0 0 -1 3.80859 16.4702)"/>
</clipPath>
</defs>
</svg>