<svg xmlns="http://www.w3.org/2000/svg" width="27" height="26" viewBox="0 0 27 26" fill="none">
<g clip-path="url(#clip0_6481_1056)">
<path d="M12.9423 11.102C12.1103 11.6394 11.2089 11.908 10.2383 11.908C9.59695 11.908 8.97728 11.7824 8.37928 11.531C7.78128 11.2797 7.25261 10.9287 6.79328 10.478C6.33395 10.0274 5.98295 9.50304 5.74028 8.90504C5.49761 8.30704 5.37628 7.68738 5.37628 7.04604C5.37628 6.04071 5.64928 5.13071 6.19528 4.31604C6.74128 3.50138 7.46061 2.90771 8.35328 2.53504C9.24595 2.16238 10.1949 2.07137 11.2003 2.26204C12.1363 2.43538 12.9596 2.87304 13.6703 3.57504C14.3809 4.27704 14.8273 5.10904 15.0093 6.07104C15.1913 7.03304 15.1003 7.97338 14.7363 8.89204C14.3723 9.81071 13.7743 10.5474 12.9423 11.102ZM11.7463 4.78404C11.2956 4.48938 10.7929 4.34204 10.2383 4.34204C9.51028 4.34204 8.86895 4.60204 8.31428 5.12204C7.79428 5.67671 7.53428 6.31804 7.53428 7.04604C7.53428 7.60071 7.68595 8.10338 7.98928 8.55404C8.29261 9.00471 8.69561 9.33404 9.19828 9.54204C9.70095 9.75004 10.2209 9.80204 10.7583 9.69804C11.2956 9.59404 11.7593 9.34704 12.1493 8.95704C12.5393 8.56704 12.7863 8.10338 12.8903 7.56604C12.9943 7.02871 12.9423 6.50871 12.7343 6.00604C12.5263 5.50338 12.1969 5.09604 11.7463 4.78404ZM3.34828 15.86C4.24961 14.9414 5.29828 14.235 6.49428 13.741C7.69028 13.247 8.93828 13 10.2383 13C11.5383 13 12.7863 13.247 13.9823 13.741C15.1783 14.235 16.2313 14.937 17.1413 15.847C18.0513 16.757 18.7533 17.81 19.2473 19.006C19.7413 20.202 19.9883 21.45 19.9883 22.75C19.9883 23.062 19.8756 23.322 19.6503 23.53C19.4249 23.738 19.1736 23.842 18.8963 23.842H13.4883C13.1936 23.842 12.9379 23.7337 12.7213 23.517C12.5046 23.3004 12.3963 23.0447 12.3963 22.75C12.3963 22.4554 12.5046 22.1997 12.7213 21.983C12.9379 21.7664 13.1936 21.658 13.4883 21.658H17.7523C17.6136 20.7567 17.3276 19.903 16.8943 19.097C16.4609 18.291 15.8976 17.5934 15.2043 17.004C14.5109 16.4147 13.7396 15.9597 12.8903 15.639C12.0409 15.3184 11.1569 15.158 10.2383 15.158C9.31961 15.158 8.43561 15.3184 7.58628 15.639C6.73695 15.9597 5.96561 16.4147 5.27228 17.004C4.57895 17.5934 4.01561 18.291 3.58228 19.097C3.14895 19.903 2.86295 20.7567 2.72428 21.658H6.98828C7.26561 21.658 7.52561 21.762 7.76828 21.97C7.97628 22.2127 8.08028 22.4727 8.08028 22.75C8.08028 23.0274 7.97628 23.2874 7.76828 23.53C7.52561 23.738 7.26561 23.842 6.98828 23.842H1.58028C1.30295 23.842 1.05161 23.738 0.826281 23.53C0.600948 23.322 0.488281 23.062 0.488281 22.75C0.488281 21.45 0.735281 20.2064 1.22928 19.019C1.72328 17.8317 2.42961 16.7787 3.34828 15.86Z" fill="#030712"/>
</g>
<defs>
<clipPath id="clip0_6481_1056">
<rect width="26" height="26" fill="white" transform="matrix(1 0 0 -1 0.328125 26)"/>
</clipPath>
</defs>
</svg>